<svg xmlns="http://www.w3.org/2000/svg" viewBox="0 0 64 64" fill="none">
  <path
    fill="#5DDBD1"
    fill-rule="evenodd"
    d="M6.973 53.605A2.912 2.912 0 0 1 4.244 55.5c-2.045 0-3.453-2.052-2.717-3.96l15.487-40.162a4.496 4.496 0 0 1 8.39 0L40.89 51.54a2.912 2.912 0 1 1-5.446 2.065L21.469 16.116a.278.278 0 0 0-.52 0L6.973 53.606Z"
    clip-rule="evenodd"
  />
  <path
    fill="#000"
    fill-rule="evenodd"
    d="M29.805 53.643c-.415 1.113-1.52 1.857-2.76 1.857-2.038 0-3.454-1.93-2.751-3.752l15.613-40.49C40.547 9.6 42.203 8.5 44.056 8.5c1.853 0 3.51 1.101 4.148 2.758l15.614 40.49c.702 1.821-.713 3.752-2.75 3.752-1.24 0-2.347-.744-2.762-1.857L44.313 16.11a.273.273 0 0 0-.257-.174.272.272 0 0 0-.258.174L29.805 53.643Z"
    clip-rule="evenodd"
  />
</svg>
