<svg width="16" height="16" viewBox="0 0 16 16" fill="none" xmlns="http://www.w3.org/2000/svg">
<g clip-path="url(#clip0_754_8519)">
<path fill-rule="evenodd" clip-rule="evenodd" d="M4.82176 2.04253C5.16829 2.0426 5.41449 2.23299 5.55581 2.38528C5.69843 2.53901 5.80467 2.72632 5.88626 2.90025C6.05142 3.25232 6.19189 3.71744 6.31678 4.2204C6.56889 5.23572 6.79776 6.57708 7.01924 7.87932L7.02589 7.91822C7.24822 9.22547 7.4635 10.4917 7.69378 11.4352C7.7498 11.6647 7.80457 11.866 7.85768 12.0379C7.86568 12.0149 7.87449 11.9912 7.88261 11.9668C8.07556 11.3859 8.24509 10.5887 8.4112 9.74236C8.4423 9.58393 8.47303 9.42383 8.50396 9.26397C8.63372 8.59317 8.76374 7.92088 8.90024 7.38896C8.98371 7.06369 9.08069 6.74531 9.19977 6.49601C9.25845 6.37316 9.34142 6.22582 9.46074 6.09973C9.58018 5.97354 9.79998 5.80456 10.1143 5.80451C10.5185 5.80454 10.7888 6.04843 10.9348 6.2337C11.0817 6.42019 11.185 6.6456 11.2613 6.84607C11.4141 7.24805 11.5352 7.76331 11.6416 8.2141L11.6439 8.22307C11.7017 8.46767 11.7558 8.69535 11.8095 8.89961C11.8222 8.86677 11.8359 8.83358 11.8491 8.79954C11.8582 8.77587 11.8673 8.75163 11.8766 8.7274C11.9798 8.45898 12.0971 8.15421 12.2161 7.91323C12.28 7.78381 12.364 7.63127 12.4714 7.50166C12.5548 7.40101 12.79 7.14361 13.1729 7.14361C13.4101 7.14364 13.5989 7.23543 13.7241 7.31981C13.849 7.40409 13.9493 7.50659 14.0246 7.59375C14.1723 7.76475 14.3061 7.97585 14.4059 8.13431C14.4156 8.14971 14.4253 8.16483 14.4345 8.17952C14.4356 8.18127 14.4364 8.1831 14.4375 8.18484C14.4987 8.09355 14.5548 8.00412 14.5974 7.93152C14.6229 7.88809 14.6431 7.85213 14.6566 7.82779C14.6633 7.8157 14.6684 7.80658 14.6715 7.80086L14.6749 7.79455L14.6752 7.79388C14.8592 7.44831 15.2868 7.31691 15.6306 7.50499C15.9731 7.69236 16.0991 8.12374 15.9162 8.46842L15.9159 8.46875L15.9152 8.47041L15.9149 8.47075L15.9132 8.47407L15.9129 8.4744L15.9069 8.48537C15.9017 8.49494 15.8944 8.50852 15.8853 8.52494C15.8671 8.55777 15.8412 8.60368 15.8092 8.65825C15.7458 8.76629 15.6551 8.91417 15.5499 9.06516C15.4479 9.21136 15.316 9.38443 15.1679 9.52826C15.0937 9.60031 14.9988 9.68142 14.886 9.74801C14.7776 9.81197 14.606 9.89025 14.3923 9.8903C14.1276 9.8903 13.9322 9.76684 13.8271 9.68485C13.7161 9.59821 13.6275 9.49615 13.5632 9.41424C13.4639 9.28787 13.3658 9.13421 13.2832 9.003C13.2516 9.08352 13.2185 9.16896 13.1838 9.25898C13.1765 9.27792 13.169 9.2972 13.1616 9.3165C13.0493 9.60796 12.9161 9.95106 12.7723 10.2218C12.7011 10.3557 12.6068 10.512 12.485 10.6436C12.3758 10.7617 12.14 10.9724 11.7869 10.9724C11.3773 10.9724 11.1087 10.7189 10.9684 10.5362C10.8254 10.3501 10.7249 10.1259 10.6506 9.92654C10.5048 9.53551 10.3871 9.03553 10.2829 8.59375C10.2797 8.58042 10.2767 8.5671 10.2736 8.55386C10.2388 8.40646 10.2046 8.26519 10.1715 8.13132C10.0791 8.54144 9.98762 9.01562 9.88993 9.52029C9.85821 9.68415 9.82593 9.85113 9.79286 10.0196C9.62886 10.8553 9.44412 11.74 9.21806 12.4206C9.10636 12.7568 8.96906 13.0922 8.79152 13.3564C8.63054 13.596 8.31234 13.9574 7.80349 13.9575C7.45144 13.9575 7.2054 13.7592 7.06878 13.6081C6.92955 13.4541 6.82627 13.2668 6.74697 13.0938C6.58622 12.7429 6.44871 12.279 6.32609 11.7766C6.08296 10.7805 5.86018 9.46939 5.64258 8.18983L5.63094 8.12068C5.40639 6.80039 5.18703 5.51904 4.95075 4.56747C4.8972 4.35181 4.84457 4.1613 4.7935 3.99666C4.75594 4.10594 4.71653 4.22745 4.67715 4.36169C4.44127 5.16579 4.22182 6.25515 4.00427 7.38464C3.97541 7.53451 3.94663 7.68508 3.91784 7.83544C3.73327 8.79922 3.54899 9.76184 3.36065 10.513C3.25285 10.9429 3.13452 11.3435 2.99928 11.648C2.93297 11.7972 2.8446 11.9649 2.72435 12.1061C2.61256 12.2373 2.37796 12.4544 2.01989 12.4545C1.77388 12.4545 1.59352 12.3423 1.49595 12.2653C1.39422 12.185 1.31736 12.0919 1.26324 12.0173C1.15427 11.867 1.05988 11.6836 0.980323 11.5087C0.817695 11.1509 0.657604 10.6939 0.51955 10.2616C0.37977 9.82401 0.255413 9.38866 0.16649 9.0645C0.121931 8.90206 0.086015 8.76649 0.0611043 8.67121L0.0321814 8.55984L0.024535 8.53026L0.0218755 8.51928C-0.0734053 8.14065 0.151087 7.75109 0.529524 7.65292C0.908674 7.55471 1.29122 7.78746 1.38691 8.16689L1.38923 8.17553L1.39588 8.20246L1.42314 8.30685C1.44682 8.39742 1.48106 8.52743 1.52388 8.68351C1.60978 8.99667 1.72836 9.41138 1.85998 9.82348C1.9011 9.9522 1.94308 10.0788 1.98498 10.2005C1.98817 10.1879 1.99209 10.1753 1.99529 10.1626C2.17255 9.45561 2.34806 8.53941 2.53419 7.56782C2.56307 7.41704 2.59222 7.26499 2.62162 7.11236C2.83682 5.99505 3.06832 4.8374 3.32674 3.95643C3.45457 3.52068 3.60128 3.10876 3.77621 2.79287C3.86336 2.63551 3.97675 2.46587 4.12694 2.3281C4.28037 2.1874 4.51556 2.04253 4.82176 2.04253ZM14.4551 9.71743C14.4346 9.71925 14.4134 9.71975 14.3919 9.71975L14.3923 9.72009C14.4137 9.72008 14.4347 9.71925 14.4551 9.71743Z" fill="url(#paint0_linear_754_8519)"/>
</g>
<defs>
<linearGradient id="paint0_linear_754_8519" x1="-0.236179" y1="3.04856" x2="16.1825" y2="3.37192" gradientUnits="userSpaceOnUse">
<stop stop-color="#FF8E43"/>
<stop offset="0.477167" stop-color="#FF58B4"/>
<stop offset="1" stop-color="#3AADFF"/>
</linearGradient>
<clipPath id="clip0_754_8519">
<rect width="16" height="16" fill="white"/>
</clipPath>
</defs>
</svg>
