<svg xmlns="http://www.w3.org/2000/svg" xmlns:xlink="http://www.w3.org/1999/xlink" fill="none" version="1.1" width="51" height="51" viewBox="0 0 51 51"><defs><clipPath id="master_svg0_402_15209"><rect x="0" y="0" width="51" height="51" rx="10"/></clipPath></defs><g clip-path="url(#master_svg0_402_15209)"><rect x="0" y="0" width="51" height="51" rx="10" fill="#FFFFFF" fill-opacity="1"/><g><path d="M23.4166,39.5714L26.0038,35.0473L33.5055,21.929000000000002L39.1954,21.929000000000002C39.1954,21.929000000000002,44.1081,30.5232,44.1081,30.5232L38.933800000000005,30.5232L36.348600000000005,25.9991L26.0019,44.0955L23.4147,39.5714L23.4166,39.5714ZM10.48465,16.9508L15.65706,16.9508L18.2423,21.474899999999998L25.7422,34.597L22.8992,39.5752L13.0718,39.5752C13.0718,39.5752,15.65894,35.0473,15.65894,35.0473L20.831400000000002,35.0473C20.831400000000002,35.0473,10.48465,16.9508,10.48465,16.9508ZM15.91483,16.49858L20.8295,7.904448L23.4166,12.42857L20.8295,16.9527L41.5229,16.9527L38.9376,21.474899999999998L18.7616,21.474899999999998L15.91483,16.49858ZM20.8295,7.00000289931C20.6695,7.00000289931,20.5152,7.0437057,20.381700000000002,7.121609C20.2481,7.199513,20.1333,7.313519,20.0524,7.452225L15.65518,15.14381L15.13775,16.04635L10.48277,16.04635C10.32283,16.04635,10.16855,16.090049999999998,10.03496,16.16796C9.90137,16.24586,9.78659,16.35987,9.70757,16.49858L7.12042,21.0227C7.0413946,21.1614,7,21.3191,7,21.474899999999998C7,21.630699999999997,7.0395126,21.7884,7.12042,21.9271L12.03506,30.5232L9.70757,34.5951C9.628540000000001,34.7357,9.58715,34.8915,9.58715,35.0473C9.58715,35.2031,9.628540000000001,35.3608,9.70757,35.4995L12.29471,40.0236C12.37374,40.1624,12.48851,40.2764,12.6221,40.3543C12.757570000000001,40.4322,12.909980000000001,40.4759,13.06991,40.4759L22.8973,40.4759L25.2248,44.5478C25.3847,44.8271,25.6801,45,26,45L31.1724,45C31.3323,45,31.4866,44.9563,31.6202,44.8784C31.7538,44.8005,31.8686,44.6865,31.9476,44.5478L36.862300000000005,35.9517L41.5172,35.9517C41.6772,35.9517,41.8315,35.908,41.965,35.8301C42.0986,35.7522,42.2134,35.6382,42.2924,35.4995L44.8796,30.9754C44.9605,30.8367,45,30.679,45,30.5232C45,30.3674,44.9605,30.2097,44.8796,30.071L40.4843,22.3813L39.9668,21.474899999999998L42.2943,17.404899999999998C42.3733,17.266199999999998,42.4147,17.1085,42.4147,16.9527C42.4147,16.796889999999998,42.3752,16.63918,42.2943,16.50047L39.7072,11.97635C39.6281,11.83764,39.5134,11.72363,39.3798,11.64573C39.2462,11.56783,39.0919,11.52413,38.932,11.52413L29.1027,11.52413L26.7752,7.452222C26.6153,7.172908,26.3199,7,26,7L20.8276,7L20.8295,7.00000289931Z" fill="#625CF6" fill-opacity="1" style="mix-blend-mode:passthrough"/></g></g></svg>